<?xml version="1.0" encoding="UTF-8"?>
<svg version="1.1" xmlns="http://www.w3.org/2000/svg" width="444" height="176">
<path d="M0 0 C146.52 0 293.04 0 444 0 C444 58.08 444 116.16 444 176 C297.48 176 150.96 176 0 176 C0 117.92 0 59.84 0 0 Z " fill="#FEFEFE" transform="translate(0,0)"/>
<path d="M0 0 C0 44.22 0 88.44 0 134 C-8.01231912 132.15100328 -15.79971679 130.28931218 -23.625 127.875 C-24.49511719 127.61074219 -25.36523438 127.34648437 -26.26171875 127.07421875 C-29.5202872 126.08204257 -32.76838624 125.07720459 -36 124 C-36 113.44 -36 102.88 -36 92 C-46.56 92 -57.12 92 -68 92 C-68 75.17 -68 58.34 -68 41 C-57.44 41 -46.88 41 -36 41 C-36 30.44 -36 19.88 -36 9 C-20.21428571 4.14285714 -20.21428571 4.14285714 -13.5 2.25 C-12.74203125 2.02957031 -11.9840625 1.80914063 -11.203125 1.58203125 C-10.46578125 1.37449219 -9.7284375 1.16695312 -8.96875 0.953125 C-8.32357422 0.76911133 -7.67839844 0.58509766 -7.01367188 0.39550781 C-5 0 -5 0 0 0 Z " fill="#67CCCC" transform="translate(95,19)"/>
<path d="M0 0 C10.23 0 20.46 0 31 0 C31 16.83 31 33.66 31 51 C20.77 51 10.54 51 0 51 C0 34.17 0 17.34 0 0 Z " fill="#65CCCC" transform="translate(111,60)"/>
<path d="M0 0 C2.64 0 5.28 0 8 0 C9.00577013 2.76886123 10.00480147 5.53984104 11 8.3125 C11.28617187 9.09818359 11.57234375 9.88386719 11.8671875 10.69335938 C12.13789063 11.45068359 12.40859375 12.20800781 12.6875 12.98828125 C13.06455078 14.03302612 13.06455078 14.03302612 13.44921875 15.09887695 C14 17 14 17 14 20 C14.66 20 15.32 20 16 20 C16.2475 18.741875 16.495 17.48375 16.75 16.1875 C17.97833802 10.59767191 19.94687375 5.33214826 22 0 C24.64 0 27.28 0 30 0 C30 9.57 30 19.14 30 29 C28.02 29 26.04 29 24 29 C23.67 23.72 23.34 18.44 23 13 C21.3962364 17.89040176 21.3962364 17.89040176 19.79907227 22.78295898 C18.11111111 27.88888889 18.11111111 27.88888889 17 29 C15.35 29 13.7 29 12 29 C10.02 23.06 8.04 17.12 6 11 C5.67 16.94 5.34 22.88 5 29 C3.35 29 1.7 29 0 29 C0 19.43 0 9.86 0 0 Z " fill="#DFECED" transform="translate(278,72)"/>
<path d="M0 0 C14 0 14 0 19 3 C21.32536063 6.48804095 21.33457898 7.90140754 21 12 C20.08799273 15.19202544 19.13498127 15.91210522 16.3125 17.75 C12.64966075 19.13220349 9.88252283 19.23295137 6 19 C6 22.3 6 25.6 6 29 C4.02 29 2.04 29 0 29 C0 19.43 0 9.86 0 0 Z " fill="#DFECED" transform="translate(172,72)"/>
<path d="M0 0 C3.43952148 2.09362177 5.78028175 4.11907831 7 8 C7.48672731 12.38054581 7.28491116 14.48715991 5.125 18.375 C2.90150053 21.12167582 2.21128307 21.84992953 -1.20703125 22.2734375 C-5.64853303 22.4465695 -8.23116635 22.48640496 -12.0625 20.0625 C-14.59441354 16.06044311 -15.44116858 12.72799537 -15 8 C-11.57820921 1.27862523 -7.52977917 -1.20594119 0 0 Z " fill="#DEECED" transform="translate(415,79)"/>
<path d="M0 0 C3.5386994 1.65139305 4.81070153 2.71605229 7 6 C7.1875 9.125 7.1875 9.125 7 12 C6 13 6 13 3.05859375 13.09765625 C1.26615234 13.08025391 1.26615234 13.08025391 -0.5625 13.0625 C-2.35880859 13.04896484 -2.35880859 13.04896484 -4.19140625 13.03515625 C-5.11824219 13.02355469 -6.04507812 13.01195313 -7 13 C-6.34 14.32 -5.68 15.64 -5 17 C-1.37471432 17.20140476 0.86501708 16.85776765 4 15 C4.66 16.32 5.32 17.64 6 19 C2.1620498 22.32385987 -0.6179959 22.64815377 -5.58203125 22.46484375 C-8 22 -8 22 -11.125 19.625 C-13.90838206 15.45487955 -13.88939767 10.80755499 -13 6 C-9.45398629 0.20817761 -6.6324111 -0.44965499 0 0 Z " fill="#DFECED" transform="translate(350,79)"/>
<path d="M0 0 C2.5 2.125 2.5 2.125 4 5 C4 7.31 4 9.62 4 12 C-0.62 12 -5.24 12 -10 12 C-9.34 13.32 -8.68 14.64 -8 16 C-4.37471432 16.20140476 -2.13498292 15.85776765 1 14 C1.66 15.32 2.32 16.64 3 18 C1.29603331 20.09933151 0.39392968 20.92588781 -2.3046875 21.43359375 C-9.27449593 21.44418616 -9.27449593 21.44418616 -13.0625 19.125 C-16.45741763 15.40154195 -16.39082252 12.37733612 -16.35546875 7.484375 C-16 5 -16 5 -13.6875 1.9375 C-9.19568545 -1.30078491 -5.24983915 -1.52108016 0 0 Z " fill="#DFECED" transform="translate(269,80)"/>
<path d="M0 0 C2.43119623 1.87015094 3.64069173 3.28138345 5 6 C5 7.98 5 9.96 5 12 C0.38 12 -4.24 12 -9 12 C-8.67 13.65 -8.34 15.3 -8 17 C-4.05272412 17.17942163 -1.4019487 17.09350689 2 15 C2.99 15.99 3.98 16.98 5 18 C3.22154329 20.58684612 1.79982927 21.84758734 -1.31640625 22.44140625 C-6.01003002 22.65825027 -8.25953574 22.57423759 -12.0625 19.625 C-14.74781439 15.98683212 -15.39279906 13.69292064 -15.359375 9.10546875 C-14.72418186 5.38406547 -12.66020984 3.59687151 -10 1 C-6.80766515 -0.59616743 -3.46538503 -0.51466114 0 0 Z " fill="#DEEBEC" transform="translate(328,79)"/>
<path d="M0 0 C1.98 0 3.96 0 6 0 C6.33 5.94 6.66 11.88 7 18 C8.98 17.67 10.96 17.34 13 17 C13.33 11.39 13.66 5.78 14 0 C15.98 0 17.96 0 20 0 C20 7.26 20 14.52 20 22 C17 22 14 22 11 22 C9.2675 22.0928125 9.2675 22.0928125 7.5 22.1875 C4 22 4 22 2.125 20.625 C-0.57929334 16.7187985 -0.11087336 12.95930565 -0.0625 8.375 C-0.05798828 7.57320313 -0.05347656 6.77140625 -0.04882812 5.9453125 C-0.03703168 3.96350994 -0.01909605 1.98174567 0 0 Z " fill="#E0ECED" transform="translate(196,79)"/>
<path d="M0 0 C2.4375 1 2.4375 1 4 2 C3.67 3.32 3.34 4.64 3 6 C0.36 5.67 -2.28 5.34 -5 5 C-5.33 5.99 -5.66 6.98 -6 8 C-5.37351563 8.12117188 -4.74703125 8.24234375 -4.1015625 8.3671875 C-2.87566406 8.61855469 -2.87566406 8.61855469 -1.625 8.875 C-0.81289062 9.03742188 -0.00078125 9.19984375 0.8359375 9.3671875 C3 10 3 10 5 12 C5.56451613 18.20967742 5.56451613 18.20967742 3.7890625 20.6953125 C0.3451802 23.20678998 -3.94232832 22.63089821 -8 22 C-10.625 20 -10.625 20 -12 18 C-11.01 16.515 -11.01 16.515 -10 15 C-9.1646875 15.495 -9.1646875 15.495 -8.3125 16 C-5.69715478 17.1309601 -3.8193354 17.15662974 -1 17 C-0.67 16.01 -0.34 15.02 0 14 C-0.62648437 13.89042969 -1.25296875 13.78085938 -1.8984375 13.66796875 C-2.71570313 13.50941406 -3.53296875 13.35085937 -4.375 13.1875 C-5.59316406 12.96126953 -5.59316406 12.96126953 -6.8359375 12.73046875 C-9 12 -9 12 -11 9 C-10.8125 5.4375 -10.8125 5.4375 -10 2 C-6.29873141 -0.46751239 -4.37776468 -0.30721156 0 0 Z " fill="#DEEBEC" transform="translate(244,79)"/>
<path d="M0 0 C0 1.65 0 3.3 0 5 C1.98 5 3.96 5 6 5 C6 6.65 6 8.3 6 10 C3.69 10 1.38 10 -1 10 C-0.67 13.63 -0.34 17.26 0 21 C1.65 21.33 3.3 21.66 5 22 C5.5625 23.9375 5.5625 23.9375 6 26 C4.12735324 27.87264676 1.50240053 27.23607378 -0.9921875 27.328125 C-3 27 -3 27 -4.74609375 25.93359375 C-6.68170042 22.94877972 -6.28393652 20.31636034 -6.1875 16.8125 C-6.16042969 15.54019531 -6.13335937 14.26789063 -6.10546875 12.95703125 C-6.07066406 11.98121094 -6.03585937 11.00539063 -6 10 C-6.99 10 -7.98 10 -9 10 C-9 8.68 -9 7.36 -9 6 C-8.01 6 -7.02 6 -6 6 C-6 4.35 -6 2.7 -6 1 C-4 0 -4 0 0 0 Z " fill="#DFECED" transform="translate(368,74)"/>
<path d="M0 0 C1.65 0 3.3 0 5 0 C5.33 8.25 5.66 16.5 6 25 C6.66 25.33 7.32 25.66 8 26 C8 27.32 8 28.64 8 30 C5.125 30.125 5.125 30.125 2 30 C0 28 0 28 -0.22705078 25.20263672 C-0.21134033 23.45877686 -0.21134033 23.45877686 -0.1953125 21.6796875 C-0.18886719 20.42285156 -0.18242187 19.16601562 -0.17578125 17.87109375 C-0.15902344 16.55238281 -0.14226562 15.23367187 -0.125 13.875 C-0.11496983 12.53516279 -0.10584404 11.19531848 -0.09765625 9.85546875 C-0.07402075 6.57013427 -0.04107234 3.28515535 0 0 Z " fill="#DDEBEC" transform="translate(222,71)"/>
<path d="M0 0 C1.98 0 3.96 0 6 0 C6 7.26 6 14.52 6 22 C4.02 22 2.04 22 0 22 C0 14.74 0 7.48 0 0 Z " fill="#E0EDED" transform="translate(390,79)"/>
<path d="M0 0 C3 0.25 3 0.25 5 2.25 C5.55800294 9.280837 5.55800294 9.280837 3.8125 12.3125 C2 13.25 2 13.25 -0.5625 13.0625 C-3 12.25 -3 12.25 -5 10.25 C-5.265625 8.375 -5.265625 8.375 -5.25 6.25 C-5.25515625 5.54875 -5.2603125 4.8475 -5.265625 4.125 C-4.77431879 0.65695617 -3.28862917 0.27405243 0 0 Z " fill="#FDFDFD" transform="translate(411,83.75)"/>
<path d="M0 0 C3.375 -0.125 3.375 -0.125 7 0 C9 2 9 2 9.3125 4.5 C9.1578125 5.7375 9.1578125 5.7375 9 7 C5.5647952 9.29013653 4.014669 9.17842973 0 9 C0 6.03 0 3.06 0 0 Z " fill="#FDFEFE" transform="translate(178,77)"/>
<path d="M0 0 C0.33 1.32 0.66 2.64 1 4 C-1.97 4 -4.94 4 -8 4 C-7.67 2.68 -7.34 1.36 -7 0 C-4.3333581 -1.33332095 -2.83319697 -0.67102033 0 0 Z " fill="#FAFCFC" transform="translate(327,84)"/>
<path d="M0 0 C1.65 0 3.3 0 5 0 C5.625 1.875 5.625 1.875 6 4 C5.34 4.66 4.68 5.32 4 6 C1.375 5.625 1.375 5.625 -1 5 C-0.67 3.35 -0.34 1.7 0 0 Z " fill="#DEECED" transform="translate(379,95)"/>
<path d="M0 0 C2.00720923 0.28674418 4.0085944 0.61866701 6 1 C6 2.32 6 3.64 6 5 C3.36 5 0.72 5 -2 5 C-1.125 1.125 -1.125 1.125 0 0 Z " fill="#FBFDFD" transform="translate(261,83)"/>
<path d="M0 0 C1.67542976 0.28604898 3.34385343 0.61781233 5 1 C5.33 2.32 5.66 3.64 6 5 C3.36 5 0.72 5 -2 5 C-1.125 1.125 -1.125 1.125 0 0 Z " fill="#FCFDFD" transform="translate(345,83)"/>
<path d="M0 0 C1.65 0 3.3 0 5 0 C5.33 1.65 5.66 3.3 6 5 C4.34385343 5.38218767 2.67542976 5.71395102 1 6 C0 5 0 5 -0.0625 2.4375 C-0.041875 1.633125 -0.02125 0.82875 0 0 Z " fill="#DEECED" transform="translate(390,71)"/>
<path d="M0 0 C0.99 0.33 1.98 0.66 3 1 C3 2.65 3 4.3 3 6 C1.68 6 0.36 6 -1 6 C-1.042721 4.33388095 -1.04063832 2.66617115 -1 1 C-0.67 0.67 -0.34 0.34 0 0 Z " fill="#EEF9F9" transform="translate(86,82)"/>
</svg>
