<?xml version="1.0" standalone="no"?>
<!DOCTYPE svg PUBLIC "-//W3C//DTD SVG 20010904//EN"
 "http://www.w3.org/TR/2001/REC-SVG-20010904/DTD/svg10.dtd">
<svg version="1.0" xmlns="http://www.w3.org/2000/svg"
 width="512.000000pt" height="512.000000pt" viewBox="0 0 512.000000 512.000000"
 preserveAspectRatio="xMidYMid meet">

<g transform="translate(0.000000,512.000000) scale(0.100000,-0.100000)"
fill="#333" stroke="none">
<path d="M1180 4945 c-155 -32 -278 -96 -391 -202 -119 -112 -191 -233 -232
-386 l-22 -82 0 -1545 c0 -1753 -7 -1598 86 -1787 100 -202 273 -345 500 -414
73 -23 84 -23 679 -27 l605 -3 26 109 c53 219 157 402 323 568 105 105 243
204 343 246 29 12 53 24 52 27 0 3 -27 27 -59 54 -109 87 -206 239 -247 387
-13 49 -18 101 -17 210 0 138 1 150 32 240 92 264 289 449 557 521 110 29 278
29 389 0 101 -27 206 -78 281 -135 32 -26 62 -46 67 -46 6 0 8 336 6 798 -4
787 -4 798 -26 877 -44 158 -116 279 -229 386 -116 109 -244 175 -401 205
-105 20 -2223 19 -2322 -1z m2092 -803 c49 -31 82 -99 75 -154 -6 -48 -30 -84
-77 -115 l-33 -23 -890 0 c-887 0 -889 0 -927 21 -90 51 -106 185 -30 254 49
45 47 44 970 42 l875 -2 37 -23z m-53 -833 c38 -8 58 -20 85 -49 62 -69 58
-155 -9 -220 l-36 -35 -906 -3 -906 -2 -33 22 c-119 82 -84 261 56 289 60 12
1693 10 1749 -2z m-914 -850 c86 -22 138 -112 115 -198 -11 -42 -64 -97 -103
-106 -12 -3 -215 -4 -452 -3 -412 3 -431 4 -457 23 -110 83 -77 254 57 286 51
12 791 10 840 -2z"/>
<path d="M3530 2640 c-270 -42 -470 -273 -470 -545 0 -248 167 -467 410 -536
63 -18 224 -16 286 3 243 75 404 288 404 533 0 243 -167 464 -400 528 -74 21
-163 27 -230 17z"/>
<path d="M3485 1289 c-465 -58 -839 -468 -848 -932 -2 -100 19 -144 87 -176
42 -21 53 -21 890 -21 823 0 848 1 885 20 42 21 75 66 86 117 10 47 -13 216
-42 308 -117 374 -434 637 -823 685 -95 11 -135 11 -235 -1z"/>
</g>
</svg>
